<svg width="24" height="25" viewBox="0 0 24 25" fill="none" xmlns="http://www.w3.org/2000/svg">
<path id="Vector" d="M16.1398 2.22721C16.0918 2.52721 16.0678 2.8272 16.0678 3.1272C16.0678 5.82716 18.2517 8.00992 20.9397 8.00992C21.2397 8.00992 21.5277 7.97512 21.8277 7.92712V17.6098C21.8277 21.6789 19.4277 24.0909 15.3478 24.0909H6.4811C2.39996 24.0909 0 21.6789 0 17.6098V8.73111C0 4.65117 2.39996 2.22721 6.4811 2.22721H16.1398ZM16.381 9.5231C16.0558 9.4871 15.733 9.6311 15.5398 9.89509L12.637 13.651L9.31186 11.0351C9.10786 10.8791 8.86787 10.8179 8.62787 10.8431C8.38907 10.8791 8.17308 11.0099 8.02788 11.2019L4.47713 15.823L4.40393 15.931C4.19994 16.3138 4.29594 16.8058 4.65593 17.071C4.82393 17.179 5.00393 17.251 5.20792 17.251C5.48512 17.263 5.74791 17.1178 5.91591 16.891L8.92787 13.0138L12.3478 15.583L12.4558 15.6538C12.8398 15.8578 13.3198 15.763 13.5958 15.4018L17.0637 10.9271L17.0157 10.9511C17.2077 10.6871 17.2437 10.3511 17.1117 10.0511C16.9809 9.7511 16.6918 9.5471 16.381 9.5231ZM21.1078 0.0908813C22.7038 0.0908813 23.9998 1.38686 23.9998 2.98284C23.9998 4.57881 22.7038 5.8748 21.1078 5.8748C19.5118 5.8748 18.2158 4.57881 18.2158 2.98284C18.2158 1.38686 19.5118 0.0908813 21.1078 0.0908813Z" fill="#D1D3E2"/>
</svg>
